<svg width="26" height="32" viewBox="0 0 26 32" fill="none" xmlns="http://www.w3.org/2000/svg">
<path fill-rule="evenodd" clip-rule="evenodd" d="M14.7465 18.0573L20.4249 12.3791C21.1084 11.6957 22.2165 11.6957 22.8999 12.3791C23.5834 13.0625 23.5834 14.1706 22.8999 14.854L13 24.7535L3.10009 14.854C2.41664 14.1706 2.41664 13.0625 3.10009 12.3791C3.78353 11.6957 4.89162 11.6957 5.57506 12.3791L11.2465 18.0504V1.95652C11.2465 1.06237 12.03 0.337524 12.9965 0.337524C13.963 0.337524 14.7465 1.06237 14.7465 1.95652V18.0573ZM2.5 28.25H23.5C24.4665 28.25 25.25 29.0335 25.25 30C25.25 30.9665 24.4665 31.75 23.5 31.75H2.5C1.5335 31.75 0.75 30.9665 0.75 30C0.75 29.0335 1.5335 28.25 2.5 28.25Z" fill="#FB9802"/>
</svg>
